<?xml version="1.0" encoding="utf-8"?>
<!-- Generator: Adobe Illustrator 23.0.3, SVG Export Plug-In . SVG Version: 6.00 Build 0)  -->
<svg version="1.1" id="Layer_1" xmlns="http://www.w3.org/2000/svg" xmlns:xlink="http://www.w3.org/1999/xlink" x="0px" y="0px"
	 viewBox="0 0 601.8 252.7" style="enable-background:new 0 0 601.8 252.7;" xml:space="preserve">
<style type="text/css">
	.st0{fill:#FFFFFF;}
	.st1{fill-rule:evenodd;clip-rule:evenodd;fill:#FFFFFF;}
</style>
<g>
	<g>
		<g>
			<path class="st0" d="M327.5,52.9c0.4,0.1,0.5,0.2,0.6,0.2l1.7-3.6c-0.8-0.5-1.7-0.8-2.5-0.9c-0.8-0.1-1.7-0.2-2.6-0.2
				c-0.8,0-1.7,0.2-2.3,0.6c-0.7,0.4-1.5,0.9-2.5,1.9V49H316v20.8h3.9V58.1c0-0.8,0.1-1.5,0.2-2.1c0.2-0.7,0.5-1.3,0.9-1.8
				c0.5-0.5,0.9-0.9,1.5-1.2c0.6-0.2,1.3-0.5,2.1-0.5c0.5,0,0.9,0.1,1.4,0.2C326.8,52.5,327.1,52.6,327.5,52.9z"/>
			<path class="st0" d="M269.3,69.5h3.9V55.2c0-1.2-0.2-2.3-0.6-3.2c-0.5-0.9-1.1-1.7-1.8-2.4c-0.8-0.6-1.7-1.2-2.7-1.4
				c-1.1-0.4-2.1-0.5-3.4-0.5c-0.9,0-1.9,0.1-2.8,0.5c-0.9,0.2-2,0.9-3.2,1.9v-1.3h-3.9v20.8h3.9V56.3c0-0.8,0.1-1.4,0.5-2
				c0.4-0.6,0.8-1.1,1.3-1.4c0.5-0.4,1.2-0.6,1.8-0.8c0.6-0.1,1.3-0.2,1.9-0.2s1.2,0.1,1.9,0.2c0.6,0.2,1.2,0.5,1.7,0.8
				c0.5,0.4,0.8,0.8,1.2,1.3c0.2,0.6,0.5,1.2,0.5,2V69.5L269.3,69.5z"/>
			<rect x="246.2" y="38.9" class="st0" width="4.3" height="30.6"/>
			<path class="st0" d="M295.6,66.8c0.9,0.9,2.1,1.8,3.6,2.4c1.3,0.6,2.8,0.8,4.4,0.8c1.5,0,3.1-0.2,4.4-0.8s2.5-1.3,3.6-2.4
				c0.9-0.9,1.8-2.1,2.4-3.4c0.6-1.3,0.8-2.7,0.8-4.3c0-1.5-0.2-2.8-0.8-4.3c-0.6-1.3-1.3-2.5-2.4-3.6c-0.9-0.9-2.1-1.9-3.6-2.4
				c-1.3-0.6-2.8-0.8-4.4-0.8c-1.5,0-3.1,0.2-4.4,0.8c-1.3,0.6-2.5,1.3-3.6,2.4c-0.9,0.9-1.8,2.1-2.4,3.6c-0.6,1.3-0.8,2.7-0.8,4.3
				c0,1.5,0.2,2.8,0.8,4.3C293.8,64.6,294.5,65.8,295.6,66.8z M297.5,56.3c0.4-0.8,0.8-1.5,1.4-2.1c0.6-0.6,1.3-1.2,2.1-1.5
				c0.8-0.4,1.7-0.5,2.5-0.5c0.9,0,1.8,0.1,2.5,0.5c0.8,0.4,1.5,0.8,2.1,1.5c0.6,0.7,1.1,1.3,1.4,2.1c0.4,0.8,0.5,1.7,0.5,2.6
				s-0.2,1.9-0.6,2.6c-0.4,0.8-0.8,1.5-1.5,2.1c-0.6,0.6-1.3,1.1-2.1,1.4c-0.8,0.4-1.7,0.5-2.5,0.5v0.1c-0.8,0-1.7-0.1-2.5-0.5
				c-0.8-0.4-1.5-0.8-2.1-1.4s-1.1-1.3-1.4-2.1c-0.4-0.8-0.6-1.7-0.6-2.6C296.9,58.1,297.1,57.1,297.5,56.3z"/>
			<path class="st0" d="M279.2,69.5h3.9V52.3h7.1v-3.4h-7.1v-3.1c0-0.9,0.2-1.9,0.6-2.6c0.5-0.7,1.2-1.2,2.1-1.2
				c1.1,0,2.4,0.6,3.9,1.9l1.8-3.4c-0.5-0.2-0.9-0.6-1.3-0.8c-0.5-0.2-0.9-0.5-1.5-0.7c-0.5-0.2-1.2-0.4-1.8-0.5s-1.4-0.1-2.1-0.1
				c-1.1,0-2,0.2-2.7,0.6c-0.7,0.4-1.3,0.9-1.8,1.7c-0.5,0.7-0.8,1.5-0.9,2.4c-0.2,0.8-0.2,1.8-0.2,2.7v3.1h-4v3.4h4v17.3H279.2z"/>
			<path class="st0" d="M345.5,56.2v13.3h4V56.3c0-0.8,0.1-1.5,0.5-2c0.4-0.6,0.7-0.9,1.2-1.3c0.5-0.4,1.1-0.6,1.7-0.8
				c0.6-0.1,1.3-0.2,1.9-0.2s1.3,0.1,1.9,0.2c0.6,0.1,1.2,0.5,1.7,0.8c0.5,0.4,0.8,0.8,1.2,1.3c0.4,0.5,0.5,1.3,0.5,2v13.3h3.9V54.8
				c0-1.2-0.2-2.1-0.6-3.1c-0.5-0.8-1.1-1.5-1.9-2.1c-0.8-0.6-1.7-0.9-2.7-1.3c-1.1-0.2-2.1-0.5-3.2-0.5c-1.4,0-2.7,0.2-4.2,0.8
				c-1.3,0.6-2.6,1.4-3.8,2.5c-0.9-1.1-1.9-1.9-3-2.5c-1.1-0.6-2.1-0.8-3.3-0.8c-0.9,0-1.9,0.1-2.8,0.5c-0.9,0.4-2,0.9-3.1,1.7v-1.3
				h-4v20.8h3.9V56.3c0-0.8,0.1-1.4,0.5-2c0.4-0.6,0.8-1.1,1.3-1.4c0.5-0.4,1.2-0.6,1.8-0.8c0.6-0.1,1.2-0.2,1.9-0.2
				s1.2,0.1,1.9,0.2c0.6,0.1,1.2,0.5,1.5,0.8c0.5,0.4,0.8,0.8,1.2,1.3C345.4,54.8,345.5,55.5,345.5,56.2z"/>
			<path class="st0" d="M443.8,66.8c0.9-0.9,1.8-2.1,2.4-3.4c0.6-1.3,0.8-2.7,0.8-4.3c0-1.5-0.2-2.8-0.8-4.3
				c-0.6-1.3-1.3-2.5-2.4-3.6c-0.9-0.9-2.1-1.9-3.6-2.4c-1.3-0.6-2.8-0.8-4.4-0.8c-1.5,0-3.1,0.2-4.4,0.8c-1.3,0.6-2.5,1.3-3.6,2.4
				c-0.9,0.9-1.8,2.1-2.4,3.6c-0.6,1.3-0.8,2.7-0.8,4.3c0,1.5,0.2,2.8,0.8,4.3c0.6,1.3,1.3,2.5,2.4,3.4c0.9,0.9,2.1,1.8,3.6,2.4
				c1.3,0.6,2.8,0.8,4.4,0.8c1.5,0,3.1-0.2,4.4-0.8C441.7,68.5,442.9,67.7,443.8,66.8z M436,65.7L436,65.7c-0.8,0.1-1.7-0.1-2.5-0.5
				c-0.8-0.4-1.5-0.8-2.1-1.4s-1.1-1.3-1.4-2.1c-0.4-0.8-0.6-1.7-0.6-2.6s0.2-1.9,0.6-2.6c0.4-0.8,0.8-1.5,1.4-2.1
				c0.6-0.6,1.3-1.2,2.1-1.5c0.8-0.4,1.7-0.5,2.5-0.5c0.9,0,1.8,0.1,2.5,0.5c0.7,0.4,1.5,0.8,2.1,1.5c0.6,0.6,1.1,1.3,1.4,2.1
				c0.4,0.8,0.5,1.7,0.5,2.6c0,0.9-0.2,1.9-0.6,2.6c-0.4,0.8-0.8,1.5-1.5,2.1c-0.6,0.6-1.3,1.1-2.1,1.4
				C437.7,65.6,436.8,65.7,436,65.7z"/>
			<path class="st0" d="M373.1,70.1c0.8,0,1.8-0.2,2.8-0.6c1.1-0.5,2.1-0.8,3.2-1.4v1.4h4V54.2c0-1.2-0.2-2.1-0.7-3.1
				c-0.5-0.8-1.1-1.5-1.8-2.1c-0.7-0.6-1.5-0.9-2.4-1.3c-0.9-0.2-1.9-0.5-2.7-0.5c-1.1,0-2,0.1-3,0.5c-0.9,0.2-1.8,0.6-2.5,0.9
				c-0.7,0.4-1.3,0.6-1.7,0.9c-0.5,0.2-0.6,0.5-0.6,0.5l1.5,3.2c0.1-0.1,0.5-0.2,0.8-0.5c0.5-0.2,0.8-0.5,1.4-0.8
				c0.6-0.2,1.2-0.5,1.9-0.7c0.6-0.2,1.3-0.2,2-0.2c0.5,0,0.8,0.1,1.2,0.2c0.5,0.2,0.8,0.5,1.1,0.8c0.4,0.2,0.6,0.6,0.8,1.1
				c0.2,0.4,0.2,0.8,0.2,1.2v1.8c-1.5,0.1-3.1,0.5-4.5,0.8c-1.5,0.4-2.7,0.8-3.9,1.5c-1.2,0.6-2.1,1.4-2.7,2.4
				c-0.7,0.9-1.1,2-1.1,3.4c0,0.8,0.1,1.7,0.5,2.4c0.4,0.7,0.8,1.4,1.4,2c0.6,0.6,1.3,0.9,2.1,1.3C371.2,70,372.1,70.1,373.1,70.1z
				 M371.5,62.2c0.6-0.5,1.4-0.9,2.3-1.2c0.8-0.4,1.9-0.6,2.7-0.8c0.9-0.2,1.8-0.4,2.5-0.5v4.4c-0.2,0.1-0.6,0.4-1.2,0.7
				c-0.5,0.2-0.9,0.6-1.5,0.8c-0.6,0.2-1.2,0.5-1.8,0.7c-0.6,0.2-1.2,0.2-1.5,0.2v0.1c-0.6,0-1.2-0.2-1.7-0.8
				c-0.5-0.5-0.8-1.2-0.8-2C370.6,63.3,371,62.7,371.5,62.2z"/>
			<path class="st0" d="M422.7,69.5V54.3c0-1.2-0.2-2.1-0.7-3.1c-0.5-0.8-1.1-1.5-1.8-2.1c-0.7-0.6-1.5-0.9-2.4-1.3
				c-0.9-0.2-1.9-0.5-2.7-0.5c-1.1,0-2,0.1-3,0.5c-0.9,0.2-1.8,0.6-2.5,0.9c-0.7,0.4-1.3,0.6-1.7,0.9c-0.4,0.4-0.6,0.5-0.6,0.5
				l1.5,3.2c0.1-0.1,0.5-0.2,0.8-0.5c0.5-0.2,0.8-0.5,1.4-0.8c0.6-0.2,1.2-0.5,1.9-0.7c0.6-0.2,1.3-0.2,2-0.2c0.5,0,0.8,0.1,1.2,0.2
				c0.5,0.2,0.8,0.5,1.1,0.8c0.4,0.2,0.6,0.6,0.8,1.1c0.2,0.4,0.2,0.8,0.2,1.2v1.7c-1.5,0.1-3.1,0.5-4.5,0.8
				c-1.5,0.4-2.7,0.8-3.9,1.5c-1.2,0.6-2,1.4-2.7,2.4c-0.7,0.9-1.1,2-1.1,3.4c0,0.8,0.1,1.7,0.6,2.4c0.4,0.7,0.8,1.4,1.4,2
				c0.6,0.6,1.3,0.9,2.1,1.3c0.8,0.4,1.7,0.5,2.6,0.5c0.8,0,1.8-0.2,2.8-0.6c1.1-0.5,2.1-0.8,3.2-1.4v1.4L422.7,69.5L422.7,69.5z
				 M417.6,64.7c-0.5,0.2-0.9,0.6-1.5,0.8c-0.6,0.2-1.2,0.5-1.8,0.7c-0.6,0.2-1.2,0.2-1.5,0.2v0.1c-0.6,0-1.2-0.2-1.7-0.8
				c-0.5-0.5-0.8-1.2-0.8-2c0-0.7,0.2-1.3,0.9-1.8c0.6-0.5,1.4-0.9,2.3-1.2c0.8-0.4,1.9-0.6,2.7-0.8c0.9-0.2,1.8-0.4,2.5-0.5v4.4
				C418.4,64.3,418.1,64.5,417.6,64.7z"/>
			<path class="st0" d="M457.4,71.9c0.6,0.6,1.4,1.2,2.3,1.5c0.9,0.4,1.9,0.6,3.1,0.6c0.9,0,2-0.2,3.1-0.6c1.1-0.4,2-0.8,2.8-1.5
				l-0.6-2.7c-0.9,0.7-1.9,1.3-2.6,1.7c-0.8,0.4-1.7,0.6-2.6,0.6c-1.2,0-2.3-0.4-3.1-1.2c-0.8-0.8-1.3-1.9-1.5-3.3H469
				c-0.1-1.1-0.2-2-0.5-2.8c-0.2-0.9-0.7-1.7-1.3-2.4s-1.2-1.2-2-1.7s-1.8-0.6-2.7-0.6c-1.1,0-2,0.1-2.8,0.5
				c-0.8,0.4-1.7,0.8-2.3,1.4c-0.6,0.6-1.1,1.3-1.4,2.1c-0.4,0.8-0.5,1.9-0.5,2.8c0,1.1,0.1,2.1,0.5,3
				C456.3,70.4,456.8,71.3,457.4,71.9z M460.3,62.6c0.6-0.5,1.3-0.6,2.1-0.6c1.5,0,2.8,0.9,3.7,2.7h-7.5
				C459,63.8,459.6,63.1,460.3,62.6z"/>
			<path class="st0" d="M416.1,87.8c-0.5-1.2-0.9-2.1-1.7-3.1c-0.7-0.8-1.7-1.5-2.7-2c-1.1-0.5-2.3-0.8-3.7-0.8s-2.7,0.2-3.8,0.6
				c-1.2,0.5-2.1,1.1-3,1.9c-0.8,0.8-1.4,1.8-1.9,2.8c-0.5,1.1-0.6,2.4-0.6,3.7c0,1.4,0.2,2.7,0.6,3.9c0.5,1.2,1.1,2.1,1.9,3.1
				c0.8,0.8,1.8,1.5,3,2c1.2,0.5,2.5,0.7,4,0.7c1.3,0,2.6-0.2,4-0.8c1.4-0.5,2.7-1.2,3.8-1.9l-0.8-3.6c-1.3,0.9-2.4,1.7-3.4,2.1
				c-0.9,0.5-2.1,0.7-3.4,0.7c-1.7,0-2.8-0.5-3.9-1.5c-1.1-0.9-1.7-2.4-2-4.3h14.1C416.7,90.1,416.4,88.8,416.1,87.8z M402.9,88.6
				c0.6-1.3,1.3-2.1,2.1-2.7c0.8-0.6,1.8-0.8,2.8-0.8c2,0,3.7,1.2,4.9,3.7L402.9,88.6L402.9,88.6z"/>
			<path class="st0" d="M262.5,96.9c-1.3,0.6-2.8,0.8-4.5,0.8c-1.3,0-2.7-0.2-3.9-0.8s-2.4-1.3-3.2-2.3c-0.9-0.9-1.7-2-2.1-3.3
				c-0.6-1.3-0.8-2.6-0.8-4c0-1.5,0.2-2.8,0.8-4.2c0.6-1.3,1.3-2.4,2.3-3.2c0.9-0.9,2-1.7,3.2-2.1c1.3-0.6,2.5-0.8,3.9-0.8
				c1.4,0,2.8,0.2,4.4,0.7s2.8,1.3,4.3,2.4l1.5-3.6c-0.7-0.6-1.5-0.9-2.4-1.3c-0.8-0.4-1.8-0.7-2.7-0.9c-0.9-0.2-1.9-0.5-2.7-0.6
				c-0.9-0.1-1.9-0.2-2.7-0.2c-2,0-3.8,0.4-5.6,1.1c-1.7,0.7-3.2,1.7-4.5,3c-1.3,1.3-2.3,2.7-3,4.5c-0.7,1.7-1.1,3.4-1.1,5.3
				s0.4,3.8,1.1,5.5c0.7,1.7,1.7,3.2,3,4.5c1.3,1.3,2.7,2.3,4.5,3c1.7,0.7,3.6,1.1,5.6,1.1c0.8,0,1.7-0.1,2.5-0.2
				c0.9-0.2,1.9-0.5,2.8-0.8c0.9-0.2,1.9-0.6,2.8-1.1c0.9-0.5,1.7-0.8,2.4-1.2l-1.8-3.4C265.3,95.6,263.9,96.3,262.5,96.9z"/>
			<path class="st0" d="M432.3,83.5c-0.6-0.6-1.4-0.9-2.3-1.2c-0.8-0.2-1.9-0.5-2.8-0.5c-0.8,0-1.5,0.1-2.4,0.4
				c-0.8,0.2-1.7,0.8-2.7,1.5v-1.2h-3.4V100h3.4V88.8c0-0.6,0.1-1.2,0.5-1.7c0.2-0.5,0.6-0.8,1.2-1.2c0.5-0.2,0.9-0.6,1.5-0.6
				c0.6-0.1,1.1-0.2,1.5-0.2s1.1,0.1,1.5,0.2c0.5,0.1,0.9,0.4,1.3,0.7c0.5,0.2,0.7,0.7,0.9,1.2s0.4,0.9,0.4,1.7v11.2h3.4v-12
				c0-0.9-0.2-1.9-0.6-2.7C433.5,84.7,432.9,84.1,432.3,83.5z"/>
			<path class="st0" d="M443.5,78l-3.4,1.1v3.6h-4v3h4V95c0,1.7,0.5,3,1.3,4c0.9,1.1,2.3,1.5,4,1.5c0.7,0,1.5-0.1,2.4-0.5
				c0.9-0.4,1.8-0.7,2.6-1.1l-1.2-2.7c-0.5,0.2-0.7,0.4-0.9,0.5c-0.2,0.1-0.5,0.2-0.7,0.2c-0.2,0.1-0.5,0.1-0.6,0.1
				c-0.2,0-0.5,0.1-0.6,0.1c-0.8,0-1.5-0.2-2.1-0.8c-0.6-0.5-0.8-1.3-0.8-2.3v-8.4h7.2v-3.1l-7.2,0.1L443.5,78L443.5,78z"/>
			<path class="st0" d="M469.6,87.8c-0.5-1.2-1.2-2.1-2-3c-0.8-0.8-1.9-1.5-3-2c-1.2-0.5-2.4-0.7-3.7-0.7s-2.5,0.2-3.7,0.7
				s-2.1,1.2-3,2c-0.8,0.8-1.5,1.9-2,3c-0.5,1.2-0.7,2.4-0.7,3.6c0,1.3,0.2,2.5,0.7,3.6c0.5,1.2,1.2,2,2,2.8c0.8,0.8,1.9,1.5,3,2
				c1.2,0.5,2.4,0.7,3.7,0.7s2.5-0.2,3.7-0.7s2.1-1.2,3-2c0.8-0.8,1.5-1.9,2-2.8c0.5-1.2,0.7-2.3,0.7-3.6
				C470.3,90,470.1,88.8,469.6,87.8z M466.1,93.5c-0.2,0.7-0.7,1.3-1.2,1.8c-0.5,0.5-1.2,0.9-1.8,1.2c-0.7,0.2-1.3,0.5-2.1,0.5V97
				c-0.7,0-1.4-0.1-2.1-0.5c-0.7-0.2-1.3-0.7-1.8-1.2c-0.5-0.5-0.9-1.2-1.2-1.9c-0.2-0.7-0.5-1.4-0.5-2.3c0-0.8,0.1-1.5,0.5-2.3
				c0.2-0.7,0.7-1.3,1.2-1.9c0.5-0.5,1.1-0.9,1.8-1.2c0.7-0.2,1.3-0.5,2.1-0.5c0.8,0,1.5,0.1,2.1,0.5c0.7,0.2,1.3,0.7,1.8,1.2
				c0.5,0.5,0.9,1.2,1.2,1.9c0.2,0.7,0.5,1.4,0.5,2.3S466.4,92.8,466.1,93.5z"/>
			<path class="st0" d="M395.3,83.4c-0.6-0.5-1.4-0.8-2.3-1.1c-0.8-0.2-1.8-0.4-2.7-0.4c-1.2,0-2.4,0.2-3.4,0.7
				c-1.2,0.5-2.1,1.2-3.2,2.1c-0.8-0.9-1.5-1.5-2.5-2s-1.9-0.7-2.8-0.7c-0.8,0-1.7,0.1-2.4,0.5c-0.8,0.2-1.7,0.8-2.6,1.4v-1.1h-3.4
				v17.4h3.4V89.2c0-0.6,0.1-1.2,0.5-1.7c0.2-0.5,0.6-0.8,1.1-1.2c0.5-0.2,0.9-0.6,1.5-0.6c0.5-0.1,1.1-0.2,1.5-0.2s0.9,0.1,1.5,0.2
				c0.5,0.1,0.9,0.4,1.3,0.7c0.4,0.2,0.7,0.7,0.9,1.2c0.2,0.5,0.4,0.9,0.4,1.7v11.2h3.4V89.3c0-0.7,0.1-1.3,0.5-1.7
				c0.2-0.5,0.6-0.8,1.1-1.2c0.5-0.4,0.9-0.5,1.4-0.6c0.5-0.1,1.1-0.2,1.5-0.2c0.6,0,1.1,0.1,1.5,0.2c0.5,0.1,0.9,0.4,1.3,0.6
				c0.5,0.2,0.7,0.7,0.9,1.2s0.4,1.1,0.4,1.7v11.2h3.4V87.8c0-0.9-0.2-1.9-0.6-2.6C396.5,84.4,395.9,83.8,395.3,83.4z"/>
			<rect x="363.2" y="82.7" class="st0" width="3.4" height="17.4"/>
			<path class="st0" d="M365.1,75.3c-0.8-0.1-1.4,0.2-1.9,0.8c-0.5,0.6-0.8,1.2-0.8,1.9c0,0.7,0.2,1.3,0.7,1.9
				c0.5,0.6,1.1,0.8,1.8,0.8s1.3-0.2,1.9-0.8c0.5-0.6,0.8-1.2,0.8-1.9c0-0.7-0.2-1.3-0.7-1.9C366.4,75.7,365.8,75.4,365.1,75.3z"/>
			<path class="st0" d="M350.4,86.9c0.6-0.6,1.2-0.9,1.9-1.3c0.7-0.4,1.5-0.5,2.3-0.5c0.6,0,1.3,0.1,2.1,0.5
				c0.8,0.2,1.7,0.7,2.6,1.3l0.9-3.6c-0.6-0.2-0.9-0.5-1.4-0.6c-0.5-0.1-0.8-0.2-1.3-0.5c-0.5-0.1-0.9-0.2-1.5-0.4
				c-0.6-0.1-1.3-0.1-2-0.1c-1.5,0-2.7,0.2-3.9,0.7c-1.2,0.5-2,1.2-2.8,2c-0.8,0.8-1.3,1.9-1.8,3c-0.5,1.1-0.6,2.4-0.6,3.7
				s0.2,2.5,0.6,3.7c0.5,1.2,1.1,2.1,1.9,3c0.8,0.8,1.9,1.5,3,2c1.2,0.5,2.5,0.7,3.9,0.7c0.9,0,1.9-0.1,2.7-0.2
				c0.9-0.2,1.7-0.6,2.5-1.2l-0.5-3.7c-0.1,0.1-0.5,0.2-0.8,0.4c-0.4,0.1-0.7,0.4-1.2,0.5c-0.5,0.1-0.8,0.4-1.3,0.5
				c-0.5,0.1-0.8,0.2-1.2,0.2c-0.8,0-1.5-0.1-2.3-0.5c-0.8-0.2-1.4-0.7-2-1.2s-0.9-1.2-1.3-1.9c-0.4-0.7-0.5-1.5-0.5-2.4
				s0.1-1.5,0.5-2.4C349.5,88.1,349.9,87.5,350.4,86.9z"/>
			<path class="st0" d="M342.8,87.8c-0.5-1.2-0.9-2.1-1.7-3.1c-0.7-0.8-1.7-1.5-2.7-2c-1.1-0.5-2.3-0.8-3.7-0.8
				c-1.4,0-2.7,0.2-3.8,0.6c-1.2,0.5-2.1,1.1-3,1.9c-0.8,0.8-1.4,1.8-1.9,2.8c-0.5,1.1-0.6,2.4-0.6,3.7c0,1.4,0.2,2.7,0.6,3.9
				c0.5,1.2,1.1,2.1,1.9,3.1c0.8,0.8,1.8,1.5,3,2c1.2,0.5,2.5,0.7,4,0.7c1.3,0,2.6-0.2,4-0.8c1.4-0.5,2.7-1.2,3.8-1.9l-0.8-3.6
				c-1.3,0.9-2.4,1.7-3.4,2.1c-0.9,0.5-2.1,0.7-3.4,0.7c-1.7,0-2.8-0.5-3.9-1.5c-1.1-0.9-1.7-2.4-1.9-4.3h14.1
				C343.4,90.1,343.2,88.8,342.8,87.8z M329.8,88.6c0.6-1.3,1.3-2.1,2.1-2.7c0.8-0.6,1.8-0.8,2.8-0.8c2,0,3.7,1.2,4.9,3.7
				L329.8,88.6L329.8,88.6z"/>
			<path class="st0" d="M303.2,83.5c-0.6-0.6-1.4-0.9-2.3-1.2c-0.8-0.2-1.9-0.5-2.8-0.5c-0.8,0-1.5,0.1-2.4,0.4
				c-0.8,0.2-1.7,0.8-2.7,1.5v-1.2h-3.4V100h3.4V88.8c0-0.6,0.1-1.2,0.5-1.7c0.2-0.5,0.6-0.8,1.2-1.2c0.5-0.2,0.9-0.6,1.5-0.6
				c0.6-0.1,1.1-0.2,1.5-0.2s1.1,0.1,1.5,0.2c0.5,0.1,0.9,0.4,1.3,0.7c0.4,0.4,0.7,0.7,0.9,1.2c0.2,0.5,0.4,0.9,0.4,1.7v11.2h3.4
				v-12c0-0.9-0.2-1.9-0.6-2.7C304.4,84.7,303.8,84.1,303.2,83.5z"/>
			<path class="st0" d="M321.2,83.8c-0.7-0.6-1.5-0.9-2.4-1.3c-0.9-0.2-1.9-0.5-2.7-0.5c-0.8,0-1.7,0.1-2.5,0.5
				c-0.8,0.2-1.7,0.8-2.6,1.7v-10h-3.4v25.9h3.4V89.4c0-0.6,0.1-1.2,0.5-1.5c0.4-0.5,0.8-0.8,1.2-1.2c0.5-0.4,0.9-0.6,1.5-0.8
				c0.6-0.1,0.9-0.2,1.4-0.2c0.7,0,1.3,0.1,1.9,0.5c0.6,0.2,1.1,0.6,1.4,1.2c0.5,0.5,0.7,0.9,0.9,1.7c0.2,0.6,0.4,1.3,0.4,2v9.3h3.4
				V88.6c0-0.9-0.2-1.8-0.6-2.5C322.5,85.2,321.9,84.4,321.2,83.8z"/>
			<path class="st0" d="M285.2,84.8c-0.8-0.8-1.9-1.5-3-2c-1.2-0.5-2.4-0.7-3.7-0.7s-2.5,0.2-3.7,0.7c-1.2,0.5-2.1,1.2-3,2
				c-0.8,0.8-1.5,1.9-2,3c-0.5,1.1-0.7,2.4-0.7,3.6c0,1.3,0.2,2.5,0.7,3.6c0.5,1.2,1.2,2,2,2.8c0.8,0.8,1.9,1.5,3,2
				c1.2,0.5,2.4,0.7,3.7,0.7s2.5-0.2,3.7-0.7s2.1-1.2,3-2c0.8-0.8,1.5-1.9,2-2.8c0.5-1.2,0.7-2.3,0.7-3.6c0-1.3-0.2-2.4-0.7-3.6
				C286.8,86.7,286.1,85.6,285.2,84.8z M283.7,93.5c-0.2,0.7-0.7,1.3-1.2,1.8s-1.2,0.9-1.8,1.2c-0.7,0.2-1.3,0.5-2.1,0.5V97
				c-0.7,0-1.4-0.1-2.1-0.5c-0.7-0.2-1.3-0.7-1.8-1.2c-0.5-0.5-0.9-1.2-1.2-1.9c-0.2-0.7-0.5-1.4-0.5-2.3c0-0.8,0.1-1.5,0.5-2.3
				c0.2-0.7,0.7-1.3,1.2-1.9c0.5-0.5,1.1-0.9,1.8-1.2c0.7-0.2,1.3-0.5,2.1-0.5c0.8,0,1.5,0.1,2.1,0.5c0.7,0.2,1.3,0.7,1.8,1.2
				s0.9,1.2,1.2,1.9c0.2,0.7,0.5,1.4,0.5,2.3S284.1,92.8,283.7,93.5z"/>
			<path class="st0" d="M411,41.6c0.6,0,1.3,0.2,2.1,0.6c0.9,0.5,1.5,0.6,1.9,0.8c0.5,0.1,0.8,0.1,1.3,0.1c0.6,0,1.2-0.1,1.7-0.2
				c0.5-0.1,0.9-0.5,1.4-0.9v-2.4c-0.5,0.5-0.8,0.8-1.4,1.2c-0.5,0.2-0.9,0.5-1.5,0.5c-0.2,0-0.5,0-0.8-0.1
				c-0.2-0.1-0.6-0.2-1.2-0.5c-0.9-0.5-1.7-0.6-2.1-0.8c-0.5-0.1-0.9-0.2-1.4-0.2c-1.3,0-2.4,0.5-3.1,1.3v2.3
				c0.6-0.6,1.2-0.9,1.5-1.2C410,41.7,410.5,41.6,411,41.6z"/>
			<path class="st0" d="M397.9,73c-0.6-0.6-1.5-0.9-2.7-1.2l0.6-1.9c0.2,0,0.6,0.1,0.9,0.1c1.2,0,2.1-0.1,3.2-0.4
				c1.1-0.2,2-0.7,3-1.3l-0.6-4.3c-0.2,0.1-0.5,0.2-0.9,0.5c-0.5,0.1-0.8,0.5-1.3,0.6c-0.5,0.2-0.9,0.5-1.5,0.6
				c-0.5,0.1-0.9,0.2-1.4,0.2c-0.9,0-1.9-0.1-2.7-0.5c-0.8-0.4-1.7-0.8-2.4-1.4c-0.7-0.6-1.2-1.3-1.7-2.1s-0.6-1.9-0.6-2.8
				c0-0.9,0.2-1.9,0.6-2.7c0.5-0.8,0.9-1.7,1.5-2.4c0.6-0.6,1.4-1.2,2.3-1.5c0.8-0.4,1.8-0.6,2.7-0.6c0.7,0,1.7,0.1,2.5,0.5
				c0.9,0.4,2,0.8,3.1,1.5l0.9-4.2c-0.6-0.2-1.2-0.5-1.7-0.7c-0.5-0.2-0.9-0.4-1.5-0.5c-0.6-0.1-1.2-0.2-1.9-0.4
				c-0.7-0.1-1.5-0.1-2.4-0.1c-1.8,0-3.2,0.2-4.6,0.8c-1.3,0.6-2.5,1.3-3.4,2.4c-0.9,0.9-1.7,2.1-2.1,3.6c-0.5,1.4-0.7,2.8-0.7,4.4
				c0,1.5,0.2,3,0.8,4.4c0.6,1.3,1.3,2.5,2.3,3.6c0.9,0.9,2.1,1.9,3.6,2.4c0.4,0.1,0.7,0.2,1.2,0.5h-0.1l-1.2,3.8
				c1.1,0,1.8,0.1,2.1,0.2c0.5,0.1,0.8,0.2,0.9,0.5c0.1,0.2,0.2,0.5,0.2,0.7c0,0.5-0.2,0.8-0.6,1.1c-0.4,0.2-0.9,0.5-1.7,0.5V77
				c0.2,0.7,0.5,1.5,0.5,2.3c0,0.1,0,0.2,0,0.5c1.7-0.1,3-0.5,3.8-1.2c1.1-0.8,1.5-1.8,1.5-2.8C398.8,74.4,398.5,73.6,397.9,73z"/>
		</g>
	</g>
	<path class="st1" d="M187.8,32.4c-19.8,0-35.9,16.1-35.9,35.9s16.1,35.9,35.9,35.9s35.9-16.1,35.9-35.9
		C223.6,48.5,207.6,32.4,187.8,32.4z M171.8,88.3h-3.9V73.8c1.3,0.4,2.6,0.7,3.9,1V88.3z M210.3,88.3h-12.9c-4.8,0-8.8-0.8-12.2-2.6
		c-3.3-1.7-5.8-4.2-7.6-7.2c-0.5-0.9-1-1.8-1.3-2.8l0,0c0-0.1,0-0.1-0.1-0.1c0,0.1,0.1,0.1,0.1,0.1c1.6,0.2,3.1,0.4,4.8,0.6
		c0,0.1,0.1,0.1,0.1,0.1c1.6,2.6,3.7,4.6,6.6,6.1s6.3,2.1,10.1,2.1h12.5V88.3L210.3,88.3z M220.1,67.9c-8.1,4.8-19.6,7.7-32.3,7.7
		c-2.4,0-4.8-0.1-7.1-0.3c0.1,0.1,0.1,0.2,0.2,0.3c-0.1-0.1-0.1-0.1-0.1-0.1c-1.6-0.1-3.1-0.3-4.6-0.5c-0.1-0.1-0.1-0.2-0.1-0.2
		c-1.4-0.2-2.9-0.5-4.3-0.8v0.3c-1.3-0.3-2.6-0.6-3.9-1v-0.3c-4.7-1.3-8.8-3-12.4-5.1c-0.2-0.1-0.5-0.3-0.7-0.5
		c3.8,2.1,8.2,3.9,13.1,5.1V48.4h3.9v25c1.3,0.2,2.7,0.5,4.2,0.7c-0.5-1.9-0.8-4-0.8-6.2c0-5.8,2-10.7,6.2-14.6s9.3-5.8,15.3-5.8
		h13.7v3.8H197c-5.4,0-9.7,1.6-12.9,4.9c-3.2,3.2-4.9,7.1-5,11.5c-0.1,2.5,0.4,4.7,1.3,6.8c2,0.2,4.1,0.2,6.2,0.2
		c12.8,0,24.2-2.9,32.3-7.7c1.3-0.8,2-2.2,1.9-3.7c-1.1-10.1-6.6-18.9-14.6-24.5c8.6,5.5,14.6,14.7,15.8,25.3
		C222.1,65.8,221.4,67.2,220.1,67.9z"/>
</g>
<path class="st0" d="M300.9,250"/>
<path class="st0" d="M2,126.3"/>
<path class="st0" d="M598.8,126.3"/>
<path class="st0" d="M300.9,3"/>
</svg>
